<svg id="圖層_1" data-name="圖層 1" xmlns="http://www.w3.org/2000/svg" viewBox="0 0 1224.95 278.02"><defs><style>.cls-1{fill:none;stroke:#7e7a6c;}</style></defs><path class="cls-1" d="M93.24,108.82q.54,18.77.54,66.88l-.41,28.82q0,8.72,2.89,11.66t9.45,3.89q7.5.93,7.5,4.29c0,2.41-2,3.62-5.9,3.62-1.87,0-5.14-.14-9.78-.41q-14.75-.93-29.22-.93a143,143,0,0,0-14.48.74,54.58,54.58,0,0,1-6,.6q-5.89,0-5.9-3.62c0-2.33,2.6-3.71,7.78-4.16q10.32-.93,11.53-6.9t1.2-24.2q0-23.58-.74-43.36t-2.74-22.58q-2-2.82-10.46-3.75-6.57-.68-6.57-3.89t6.71-3.75l2.81-.27ZM91.36,63.51a19.43,19.43,0,0,1-19.3,19.3,18.48,18.48,0,0,1-13.67-5.69,19.34,19.34,0,0,1,0-27.28,19.34,19.34,0,0,1,27.28,0A18.52,18.52,0,0,1,91.36,63.51Z"/><path class="cls-1" d="M173.53,135q9.1-12.85,19.77-19.3a43.43,43.43,0,0,1,22.85-6.43,34.66,34.66,0,0,1,18.63,5.23q8.44,5.22,11.46,12.46t3,20.51l-1.21,53.48q0,11,2,14.61t8.45,4.69q5.36.95,5.36,4.29c0,2.32-1.74,3.49-5.23,3.49q-4.42,0-19.43-1.08c-3.49-.18-6.3-.26-8.45-.26s-7.95.44-17.69,1.34H206.5q-5.49,0-5.49-3.62c0-2,1.65-3.26,5-3.89a16.92,16.92,0,0,0,7.23-3.09q2.69-2.15,3.56-21.07t.87-37.58q0-20.67-3.29-28.32t-12.53-7.65q-11.4,0-21.11,16.68T171,190.71q0,13.41,1.34,19.44c.89,4,2,6.55,3.29,7.57s4,1.9,8.24,2.62c2.5.44,3.75,1.74,3.75,3.88,0,2.5-1.83,3.76-5.49,3.76-1.79,0-3.76-.09-5.9-.25q-12.87-1.09-13.94-1.09A301.4,301.4,0,0,0,130.64,228a27.18,27.18,0,0,1-3.22.26q-5,0-5-3.88c0-2.24,1.48-3.53,4.42-3.89q6.84-.81,9.25-3.76t3.55-18.45q1.14-15.51,1.14-37,0-27.37-2-33.89t-9.65-9.46q-5.49-2.15-5.49-4.15c0-2.15,2.63-3.22,7.91-3.22q22.24,0,36-1.74A75.18,75.18,0,0,1,173.53,135Z"/><path class="cls-1" d="M328.07,111.1q8.18-.41,25.07-.41a49.58,49.58,0,0,1,12.6,1.34q-2,10.06-3.55,10.73t-34.12,2.54l-1.47,59.11q0,12.6,1.27,18.5a18,18,0,0,0,5.83,9.92q4.56,4,11.8,4,6.17,0,17.56-6.57a6.58,6.58,0,0,1,2.95-.94c1.69,0,2.54.9,2.54,2.69q0,3.89-10.85,10.58t-25.47,6.71q-17.3,0-27.14-8.45t-9.86-35.65q0-30,1.08-59.92a177.45,177.45,0,0,1-18.77-.67c-3.66-.44-5.49-1.74-5.49-3.88,0-1.79,2.09-3.22,6.3-4.29a58.14,58.14,0,0,0,22.31-10.19q9.85-7.36,16.82-23.46a60.36,60.36,0,0,1,3.82-8,3.33,3.33,0,0,1,2.89-1.41c2.59,0,3.88,2.15,3.88,6.43Z"/><path class="cls-1" d="M425.79,135.89q6.69-13.53,15.41-20.24a31.16,31.16,0,0,1,19.44-6.7q10.19,0,16.28,5.9a19.64,19.64,0,0,1,6.1,14.74,17.17,17.17,0,0,1-4.36,11.86,13.69,13.69,0,0,1-10.65,4.9,12.25,12.25,0,0,1-7.78-2.42q-3.08-2.4-6.56-8.57-4.83-8.85-8.45-8.85-5,0-11.26,10t-6.3,38.95q0,36.54,2.48,40.62t10.93,4.08q7.37,0,7.37,4c0,2.5-2.41,3.76-7.24,3.76q-4,0-11.66-.74-7-.6-13.14-.6-13.26,0-26.27.93c-3.66.27-5.81.41-6.43.41q-5.62,0-5.63-4.23,0-3.67,6.57-3.95t9-3q2.53-2.74,2.54-12l.54-33.47q0-10.17-.8-25.29t-1.48-18a9.49,9.49,0,0,0-3.42-5.15,13.13,13.13,0,0,0-7.44-2.68c-3.21-.36-5.25-.78-6.09-1.27s-1.28-1.5-1.28-3c0-2.41,2.24-3.66,6.7-3.75q12.33-.14,42-3.22Z"/><path class="cls-1" d="M617.19,166.05q0,24.66-18.36,43.83t-46.65,19.17q-26,0-43.69-16.09t-17.7-42.89q0-27.21,18.7-44T555,109.22q27.21,0,44.7,15.88T617.19,166.05Zm-37,9.19q0-22-7.31-39.79t-21-17.79q-12.07,0-18.64,12.42t-6.56,34.82q0,24.43,7.44,40.07T554.6,220.6q12.72,0,19.16-12.48T580.2,175.24Z"/><path class="cls-1" d="M724.69,121.68q0-38.73-.4-51.67t-2.15-15.14q-1.74-2.22-9.51-3.56-5.24-.8-5.23-3.75a2.68,2.68,0,0,1,1.81-2.88q1.8-.6,11.59-.6h35.39l-.27,95.16-.67,59.11q0,13.68,2.34,17.29t10.79,4.7q5,.53,5,3.75,0,3.48-5.22,3.48H724.69V209.21q-5.76,10.32-14.07,15.41a36.2,36.2,0,0,1-19.31,5.1q-20.5,0-36-15.93t-15.49-41.11q0-27.59,17.7-45.32t39.4-17.74a37.26,37.26,0,0,1,15.08,3A39.23,39.23,0,0,1,724.69,121.68ZM676,168.8q0,25.56,6.77,37.41T700,218.06q10.05,0,17.22-11.31t7.17-40.9q0-24.09-6-36.14t-18.23-12.05q-12.06,0-18.09,12.79T676,168.8Z"/><path class="cls-1" d="M830.85,111.5q.66,13.8.67,37.66,0,36.19.67,46.31t5.29,15.22q4.62,5.09,10.52,5.09,7,0,14.14-5.23a30.88,30.88,0,0,0,10.59-13.67q3.42-8.44,3.42-27.61l.27-29.62q0-11.81-1.27-15.55t-8.65-4q-8-.4-8-4.16A2.67,2.67,0,0,1,860.4,113c1.3-.4,4.71-.6,10.26-.6q18.62,0,34.71-.94.54,5.22.54,57.23,0,41.82.8,45.64t8.71,4.49q4.7.54,4.69,3.89c0,2.59-1.78,3.89-5.36,3.89-.71,0-1.83,0-3.35-.14q-3.75-.27-8.84-.27-17.84,0-19.71.14c-1.43.09-2.63.13-3.62.13q-2.54,0-3.15-.87t-.6-5.16a106.46,106.46,0,0,1,.94-14.07q-9.25,11.25-19.5,16.88a44,44,0,0,1-21.52,5.63q-34.17,0-34.18-38.33V149.16q0-21.43-1.54-25.13t-8.11-4.62q-5.9-.81-5.89-3.49,0-3.61,5.22-3.62Q826.83,112.3,830.85,111.5Z"/><path class="cls-1" d="M940.09,169.94q0-25.2,17.29-43.16t43.42-18q17.16,0,30.23,8.24t13.07,19.5q0,6.7-4,10.52a13.75,13.75,0,0,1-10,3.82q-11.54,0-16.49-16.68-2.68-9.15-5.9-13.06t-9.65-3.9q-11,0-16.55,11t-5.56,33q0,25.25,9.12,40.34t23.6,15.1q19.32,0,27.23-22.92,2.54-7.25,6-7.24,3.75,0,3.75,4,0,11.65-11.87,25.27t-35.46,13.6q-25.87,0-42.1-16.82T940.09,169.94Z"/><path class="cls-1" d="M1104.28,165.51c-.09,2.6-.13,4.47-.13,5.63q0,19,9.31,32.24t25.13,13.2q16.23,0,31.91-14.07,3.21-2.82,4.55-2.82c2.33,0,3.49,1.26,3.49,3.76q0,2.94-8,10.59a52.08,52.08,0,0,1-19.71,11.52,75.78,75.78,0,0,1-24.12,3.89q-27.35,0-42.83-16.69a55.94,55.94,0,0,1-15.48-39.34q0-27.21,17.76-45.64t44.3-18.43q24.93,0,38,16.76t13.07,31.9q0,4.83-2.55,5.76t-16.49.94Zm.81-9.78q19.83.27,22.92.27,15.13,0,18.56-2.15t3.42-8.71a31.59,31.59,0,0,0-6.3-19.43q-6.3-8.44-15-8.45Q1108,117.26,1105.09,155.73Z"/></svg>